<svg viewBox="0 0 808.01 140.31" xmlns="http://www.w3.org/2000/svg"><path d="m794.82 92.58c-8.29.86-13.57-3.44-14.63-12.03l-7.4-24.17c-2.11-7.63-12.56-9.3-19.02-9.3l-202.49.39c-.59-.04-1.05-.08-1.06-.13h-.89c-5.21 0-13.39-3.07-15.82-8.74l-11.64-27.6c-3.4-6.91-13.53-9.51-18.92-9.51l-98.95.24-98.95-.24c-5.39 0-15.52 2.6-18.92 9.51l-11.64 27.6c-2.43 5.67-10.61 8.74-15.82 8.74h-.89c0 .13-3.61.24-3.61.24-1.05 0-2.07.17-3.02.47l-233.38.45c-9.88.03-15.98 11.32-15.98 16.57l-.29 73.74 791.12-1.42h13.88v-34.92c0-5.25-5.23-9.89-11.69-9.89z" fill="#fbe2e4" stroke="#e96891" stroke-miterlimit="10" stroke-width="3"/><text fill="#f392aa" font-family="FormaDJRMicro-Medium, 'Forma DJR Micro'" font-size="25" font-weight="500" transform="translate(326.87 34.55)"><tspan x="0" y="0">NF</tspan><tspan letter-spacing="0em" x="30.97" y="0">C</tspan><tspan x="48.35" y="0"/><tspan letter-spacing="-.05em" x="53.27" y="0">K</tspan><tspan letter-spacing="-.03em" x="67.4" y="0">ey</tspan><tspan x="92.67" y="0">chain</tspan></text></svg>