<?xml version="1.0" encoding="UTF-8"?>
<svg id="Layer_2" data-name="Layer 2" xmlns="http://www.w3.org/2000/svg" viewBox="0 0 915.33 764.21">
  <defs>
    <style>
      .cls-1 {
        fill: #f8becc;
        stroke: #e96891;
        stroke-miterlimit: 10;
        stroke-width: 3px;
      }

      .cls-2 {
        fill: #fff;
      }

      .cls-3 {
        letter-spacing: -.01em;
      }

      .cls-4 {
        letter-spacing: -.03em;
      }

      .cls-5 {
        font-family: FormaDJRMicro-Medium, 'Forma DJR Micro';
        font-size: 25px;
        font-weight: 500;
      }

      .cls-6 {
        letter-spacing: 0em;
      }

      .cls-7 {
        letter-spacing: 0em;
      }

      .cls-8 {
        letter-spacing: 0em;
      }
    </style>
  </defs>
  <g id="Layer_8" data-name="Layer 8">
    <g>
      <path class="cls-1" d="M879.17,101.33c-.33-.02-.66-.04-.99-.04-9.08.94-14.87-3.77-16.03-13.18l-3.12-10.21-4.98-16.27c-2.32-8.35-13.76-10.19-20.84-10.19l-221.86.43c-.65-.04-1.15-.09-1.16-.14h-.97c-5.7,0-14.67-3.37-17.33-9.58l-12.75-30.24c-3.72-7.57-14.82-10.42-20.73-10.42l-108.42.26-108.42-.26c-5.9,0-17.01,2.85-20.73,10.42l-12.76,30.24c-2.66,6.21-11.63,9.58-17.33,9.58h-.97c0,.15-3.96.26-3.96.26-1.16,0-2.26.18-3.31.51l-255.7.49c-10.83.03-17.51,12.4-17.51,18.15l-.09,22.53c-.21,1.88-.32,3.7-.32,5.43L1.52,703.71c59,0,803.9-7.38,877.65-7.38l11.81-545.94v-38.26c0-5.48-5.21-10.34-11.81-10.79Z"/>
      <rect class="cls-2" x="32.54" y="86.21" width="807.5" height="557" rx="10" ry="10"/>
      <path class="cls-1" d="M864.33,762.71l-829.12-6.91c-21.01.04-33.79-8.6-33.7-30.86L43.56,143.36c0-14.75,7.38-36.88,29.5-36.88l803.9,14.75c14.75,0,36.88,0,36.88,22.13l-28.6,600.59c-2.71,12.8-10.39,17.96-20.9,18.76Z"/>
    </g>
  </g>
  <g id="Layer_2-2" data-name="Layer 2">
    <text class="cls-5" transform="translate(369.71 32.11)"><tspan class="cls-8" x="0" y="0">P</tspan><tspan class="cls-4" x="14.9" y="0">r</tspan><tspan x="23.95" y="0">oje</tspan><tspan class="cls-3" x="58.23" y="0">c</tspan><tspan x="71.5" y="0">t</tspan><tspan class="cls-6" x="80.42" y="0"> </tspan><tspan x="85.1" y="0">Guid</tspan><tspan class="cls-7" x="137.37" y="0">e</tspan><tspan x="151.32" y="0">s</tspan></text>
  </g>
</svg>